<svg width="212" height="45" viewBox="0 0 212 45" fill="none" xmlns="http://www.w3.org/2000/svg">
<path d="M66.1969 23.9434V23.416C66.1969 22.0907 65.7438 21.0764 64.8375 20.3731C63.9586 19.6429 62.8051 19.2777 61.3769 19.2777C60.2783 19.2777 59.4132 19.4671 58.7815 19.8457C58.1773 20.1973 57.6006 20.7383 57.0513 21.4686C56.8865 21.685 56.708 21.8337 56.5157 21.9149C56.3235 21.996 56.0625 22.0366 55.733 22.0366H54.4971C54.195 22.0366 53.9203 21.9284 53.6731 21.712C53.4534 21.4956 53.3573 21.2387 53.3848 20.9411C53.4672 20.1297 53.8654 19.3318 54.5795 18.5474C55.321 17.736 56.296 17.0733 57.5044 16.5594C58.7129 16.0455 60.0037 15.7886 61.3769 15.7886C63.9311 15.7886 65.991 16.4918 67.5564 17.8983C69.1494 19.3048 69.9459 21.2792 69.9459 23.8217V36.196C69.9459 36.4935 69.836 36.7505 69.6163 36.9669C69.3966 37.1832 69.1357 37.2914 68.8335 37.2914H67.3093C67.0072 37.2914 66.7462 37.1832 66.5265 36.9669C66.3068 36.7505 66.1969 36.4935 66.1969 36.196V34.5326C65.7575 35.5063 64.8237 36.2771 63.3956 36.8451C61.9674 37.4132 60.5393 37.6971 59.1111 37.6971C57.7104 37.6971 56.4608 37.4537 55.3622 36.9669C54.2636 36.453 53.4122 35.7632 52.808 34.8977C52.2312 34.0322 51.9429 33.0585 51.9429 31.9766C51.9429 29.948 52.7119 28.3657 54.2499 27.2297C55.7879 26.0667 57.834 25.2823 60.3882 24.8766L66.1969 23.9434ZM66.1969 27.1891L61.3357 27.96C59.5505 28.2305 58.1636 28.6768 57.1749 29.2989C56.1861 29.8939 55.6918 30.6512 55.6918 31.5709C55.6918 32.2471 56.0076 32.8556 56.6393 33.3966C57.271 33.9375 58.2322 34.208 59.5231 34.208C61.5005 34.208 63.1072 33.6535 64.3431 32.5446C65.579 31.4356 66.1969 29.9886 66.1969 28.2034V27.1891Z" fill="white"/>
<path d="M79.7053 36.196C79.7053 36.4935 79.5954 36.7505 79.3757 36.9669C79.156 37.1832 78.8951 37.2914 78.593 37.2914H77.0687C76.7666 37.2914 76.5057 37.1832 76.286 36.9669C76.0663 36.7505 75.9564 36.4935 75.9564 36.196V9.58115C75.9564 9.28362 76.0663 9.02667 76.286 8.81029C76.5057 8.59391 76.7666 8.48572 77.0687 8.48572H78.593C78.8951 8.48572 79.156 8.59391 79.3757 8.81029C79.5954 9.02667 79.7053 9.28362 79.7053 9.58115V36.196Z" fill="white"/>
<path d="M94.5448 34.208C97.2913 34.208 99.1451 33.1531 100.106 31.0434C100.299 30.6377 100.491 30.3537 100.683 30.1914C100.875 30.0291 101.136 29.948 101.466 29.948H102.702C103.004 29.948 103.265 30.0562 103.485 30.2726C103.704 30.4619 103.814 30.6918 103.814 30.9623C103.814 31.8819 103.443 32.8691 102.702 33.924C101.96 34.9789 100.889 35.8714 99.4884 36.6017C98.0878 37.332 96.4399 37.6971 94.5448 37.6971C92.5949 37.6971 90.9058 37.2914 89.4776 36.48C88.0495 35.6686 86.9509 34.5596 86.1819 33.1531C85.4129 31.7196 84.9872 30.1238 84.9048 28.3657C84.8773 28.0411 84.8636 27.4191 84.8636 26.4994C84.8636 25.8503 84.8773 25.3905 84.9048 25.12C85.152 22.3611 86.0995 20.1162 87.7474 18.3851C89.3952 16.6541 91.6611 15.7886 94.5448 15.7886C96.4399 15.7886 98.074 16.1537 99.4472 16.884C100.848 17.5872 101.905 18.4663 102.619 19.5211C103.361 20.549 103.759 21.5227 103.814 22.4423C103.842 22.7398 103.732 22.9968 103.485 23.2131C103.265 23.4295 103.004 23.5377 102.702 23.5377H101.466C101.136 23.5377 100.875 23.4566 100.683 23.2943C100.491 23.132 100.299 22.848 100.106 22.4423C99.1451 20.3326 97.2913 19.2777 94.5448 19.2777C93.0343 19.2777 91.716 19.7781 90.5899 20.7789C89.4639 21.7796 88.8185 23.2943 88.6537 25.3229C88.6262 25.6204 88.6125 26.1072 88.6125 26.7834C88.6125 27.4055 88.6262 27.8653 88.6537 28.1629C88.8459 30.1914 89.4914 31.7061 90.5899 32.7069C91.716 33.7076 93.0343 34.208 94.5448 34.208Z" fill="white"/>
<path d="M127.778 36.196C127.778 36.4935 127.668 36.7505 127.448 36.9669C127.228 37.1832 126.968 37.2914 126.665 37.2914H125.141C124.839 37.2914 124.578 37.1832 124.358 36.9669C124.139 36.7505 124.029 36.4935 124.029 36.196V25.4851C124.029 23.4566 123.521 21.9149 122.505 20.86C121.488 19.8051 120.074 19.2777 118.261 19.2777C116.476 19.2777 115.062 19.8051 114.018 20.86C113.002 21.9149 112.494 23.4566 112.494 25.4851V36.196C112.494 36.4935 112.384 36.7505 112.164 36.9669C111.944 37.1832 111.684 37.2914 111.381 37.2914H109.857C109.555 37.2914 109.294 37.1832 109.074 36.9669C108.855 36.7505 108.745 36.4935 108.745 36.196V9.58115C108.745 9.28362 108.855 9.02667 109.074 8.81029C109.294 8.59391 109.555 8.48572 109.857 8.48572H111.381C111.684 8.48572 111.944 8.59391 112.164 8.81029C112.384 9.02667 112.494 9.28362 112.494 9.58115V18.5474C113.098 17.7631 113.922 17.1139 114.966 16.6C116.037 16.059 117.341 15.7886 118.879 15.7886C120.61 15.7886 122.148 16.1537 123.493 16.884C124.839 17.6143 125.883 18.6691 126.624 20.0486C127.393 21.401 127.778 23.0103 127.778 24.8766V36.196Z" fill="white"/>
<path d="M142.214 15.7886C145.153 15.7886 147.473 16.7082 149.176 18.5474C150.879 20.3867 151.73 22.8886 151.73 26.0531V27.1486C151.73 27.4461 151.621 27.7031 151.401 27.9194C151.181 28.1358 150.92 28.244 150.618 28.244H136.446V28.4874C136.501 30.2726 137.051 31.6791 138.094 32.7069C139.165 33.7076 140.539 34.208 142.214 34.208C143.587 34.208 144.645 34.0322 145.386 33.6806C146.155 33.329 146.842 32.8286 147.446 32.1794C147.666 31.9631 147.858 31.8143 148.023 31.7331C148.215 31.652 148.462 31.6114 148.764 31.6114H150C150.33 31.6114 150.604 31.7196 150.824 31.936C151.044 32.1524 151.14 32.4093 151.112 32.7069C151.003 33.4371 150.591 34.1945 149.877 34.9789C149.19 35.7362 148.188 36.3853 146.869 36.9263C145.578 37.4402 144.027 37.6971 142.214 37.6971C140.456 37.6971 138.891 37.305 137.518 36.5206C136.144 35.7091 135.046 34.6002 134.222 33.1937C133.425 31.7872 132.945 30.205 132.78 28.4469C132.725 27.6354 132.698 27.0133 132.698 26.5806C132.698 26.1478 132.725 25.5257 132.78 24.7143C132.945 23.0373 133.425 21.5227 134.222 20.1703C135.046 18.8179 136.131 17.7495 137.476 16.9651C138.85 16.1808 140.429 15.7886 142.214 15.7886ZM148.023 24.836V24.7143C148.023 23.0644 147.487 21.7526 146.416 20.7789C145.372 19.7781 143.972 19.2777 142.214 19.2777C140.621 19.2777 139.262 19.7781 138.135 20.7789C137.037 21.7796 136.474 23.0914 136.446 24.7143V24.836H148.023Z" fill="white"/>
<path d="M160.449 18.5474C161.108 17.709 161.85 17.0463 162.674 16.5594C163.498 16.0455 164.596 15.7886 165.97 15.7886C169.183 15.7886 171.435 16.9651 172.726 19.3183C173.522 18.1823 174.429 17.3168 175.445 16.7217C176.461 16.0996 177.793 15.7886 179.441 15.7886C182.133 15.7886 184.124 16.5865 185.415 18.1823C186.733 19.7781 187.392 22.0366 187.392 24.9577V36.196C187.392 36.4935 187.282 36.7505 187.062 36.9669C186.843 37.1832 186.582 37.2914 186.28 37.2914H184.755C184.453 37.2914 184.192 37.1832 183.973 36.9669C183.753 36.7505 183.643 36.4935 183.643 36.196V25.3634C183.643 21.3063 182.023 19.2777 178.782 19.2777C177.299 19.2777 176.118 19.7646 175.239 20.7383C174.36 21.712 173.921 23.1591 173.921 25.0794V36.196C173.921 36.4935 173.811 36.7505 173.591 36.9669C173.371 37.1832 173.11 37.2914 172.808 37.2914H171.284C170.982 37.2914 170.721 37.1832 170.501 36.9669C170.282 36.7505 170.172 36.4935 170.172 36.196V25.3634C170.172 21.3063 168.551 19.2777 165.311 19.2777C163.827 19.2777 162.647 19.7646 161.768 20.7383C160.889 21.712 160.449 23.1591 160.449 25.0794V36.196C160.449 36.4935 160.339 36.7505 160.12 36.9669C159.9 37.1832 159.639 37.2914 159.337 37.2914H157.813C157.511 37.2914 157.25 37.1832 157.03 36.9669C156.81 36.7505 156.7 36.4935 156.7 36.196V17.2897C156.7 16.9922 156.81 16.7352 157.03 16.5189C157.25 16.3025 157.511 16.1943 157.813 16.1943H159.337C159.639 16.1943 159.9 16.3025 160.12 16.5189C160.339 16.7352 160.449 16.9922 160.449 17.2897V18.5474Z" fill="white"/>
<path d="M198.93 44.0263C198.683 44.6754 198.285 45 197.735 45H196.046C195.772 45 195.538 44.9053 195.346 44.716C195.154 44.5267 195.058 44.2968 195.058 44.0263C195.058 43.9181 195.071 43.8234 195.099 43.7423L199.054 35.2629L190.897 17.452C190.869 17.3709 190.855 17.2762 190.855 17.168C190.855 16.8975 190.952 16.6676 191.144 16.4783C191.336 16.289 191.57 16.1943 191.844 16.1943H193.533C194.083 16.1943 194.481 16.5189 194.728 17.168L201.072 30.9623L207.499 17.168C207.746 16.5189 208.144 16.1943 208.694 16.1943H210.383C210.657 16.1943 210.891 16.289 211.083 16.4783C211.275 16.6676 211.371 16.8975 211.371 17.168C211.371 17.2762 211.358 17.3709 211.33 17.452L198.93 44.0263Z" fill="white"/>
<path d="M36.3668 23.8697L22.5338 0.384388C22.4668 0.268421 22.3698 0.171821 22.2526 0.104336C22.1353 0.036851 22.002 0.000866964 21.8661 1.5471e-05C21.7301 -0.000836022 21.5964 0.0334748 21.4783 0.099486C21.3602 0.165497 21.262 0.260874 21.1935 0.375993L17.0506 7.41318C16.9149 7.64354 16.8435 7.90485 16.8435 8.17084C16.8435 8.43684 16.9149 8.69814 17.0506 8.9285L26.0707 24.2496C26.2065 24.4801 26.4019 24.6716 26.6372 24.8046C26.8725 24.9376 27.1393 25.0075 27.411 25.0072H35.6967C35.8324 25.0068 35.9655 24.9715 36.0829 24.9049C36.2003 24.8382 36.2977 24.7426 36.3656 24.6274C36.4334 24.5123 36.4692 24.3817 36.4694 24.2487C36.4697 24.1157 36.4343 23.985 36.3668 23.8697Z" fill="white"/>
<path d="M0.106667 36.144L13.9398 12.6587C14.0076 12.5436 14.1052 12.4481 14.2226 12.3817C14.3401 12.3153 14.4732 12.2803 14.6088 12.2803C14.7444 12.2803 14.8776 12.3153 14.9951 12.3817C15.1125 12.4481 15.21 12.5436 15.2779 12.6587L19.4229 19.6896C19.5586 19.9203 19.63 20.182 19.63 20.4483C19.63 20.7146 19.5586 20.9762 19.4229 21.207L10.4028 36.5281C10.2675 36.7586 10.0726 36.9501 9.83759 37.0831C9.60263 37.2162 9.336 37.286 9.06466 37.2857H0.776806C0.640277 37.2864 0.50601 37.2516 0.387649 37.1849C0.269289 37.1182 0.171072 37.0219 0.102982 36.9059C0.034893 36.7899 -0.000641009 36.6583 8.75362e-06 36.5245C0.000658517 36.3906 0.0374548 36.2593 0.106667 36.144Z" fill="white"/>
<path d="M15.2759 37.2807H42.9421C43.0778 37.2806 43.2111 37.2454 43.3286 37.1788C43.446 37.1121 43.5435 37.0163 43.6112 36.901C43.6789 36.7857 43.7145 36.655 43.7143 36.5219C43.7141 36.3889 43.6782 36.2583 43.6101 36.1431L39.4715 29.1081C39.3357 28.8775 39.1403 28.686 38.9051 28.553C38.6698 28.42 38.4028 28.3501 38.1312 28.3504H20.0911C19.8194 28.3501 19.5526 28.42 19.3173 28.553C19.082 28.686 18.8866 28.8775 18.7508 29.1081L14.6079 36.1431C14.5399 36.2583 14.504 36.3889 14.5038 36.5219C14.5036 36.655 14.5391 36.7857 14.6068 36.901C14.6745 37.0163 14.772 37.1121 14.8895 37.1788C15.0069 37.2454 15.1402 37.2806 15.2759 37.2807Z" fill="white"/>
</svg>
