<svg width="42" height="42" viewBox="0 0 42 42" fill="none" xmlns="http://www.w3.org/2000/svg">
<path fill-rule="evenodd" clip-rule="evenodd" d="M17.2056 0.26441C9.13454 1.79575 2.71055 7.76467 0.547859 15.7424C-0.122495 18.2148 -0.190563 23.3674 0.415009 25.7861C2.33946 33.4716 8.12971 39.399 15.7188 41.4526C18.1935 42.1224 23.3507 42.1904 25.7716 41.5854C33.4755 39.6598 39.3934 33.8891 41.4521 26.2952C42.1225 23.8228 42.1906 18.6702 41.585 16.2515C39.6589 8.55965 33.787 2.55625 26.2812 0.604915C23.8049 -0.0388084 19.6295 -0.195459 17.2056 0.26441ZM23.9175 1.78121C26.2248 2.89723 27.5698 4.88257 27.754 7.44456C27.8681 9.03218 27.458 10.7983 26.7626 11.7152C26.4696 12.1017 26.3835 12.1099 25.8899 11.8001C25.5887 11.6111 24.9477 11.3313 24.4654 11.1784L23.5882 10.9007L24.172 10.0427C25.3176 8.35821 24.8245 6.06167 23.0334 4.7421C22.459 4.31881 22.0567 4.25503 20.0994 4.27707C15.1159 4.33312 10.2544 7.03535 7.12301 11.4901C6.21935 12.7759 5.74146 13.2196 4.78193 13.6637C4.11909 13.9704 3.16285 14.549 2.65727 14.9493L1.73764 15.6767L2.33453 14.0924C4.34888 8.74585 8.71487 4.37627 14.0369 2.3799C17.6668 1.01859 21.8201 0.766725 23.9175 1.78121ZM30.7957 3.69666C34.762 5.96388 38.063 9.82364 39.6519 14.0523C40.444 16.1605 41.0287 19.6183 40.889 21.3706C40.4684 26.6545 34.9181 29.4693 30.3023 26.7394C29.9019 26.5025 29.8944 26.4319 30.2176 25.9186C30.412 25.6098 30.6971 24.9604 30.8511 24.4755L31.1309 23.5935L31.8595 24.1117C32.9683 24.9006 34.9645 24.974 36.0004 24.2642C37.5509 23.2011 37.7854 22.6479 37.7567 20.119C37.7009 15.1678 34.9798 10.2713 30.5608 7.17089C29.2142 6.22606 28.8213 5.79387 28.2887 4.67104C27.9345 3.92437 27.3517 2.96664 26.9935 2.54289L26.3424 1.77206L27.9303 2.36935C28.8039 2.69766 30.0932 3.29495 30.7957 3.69666ZM22.171 5.65715C23.0883 6.13109 23.5819 6.89371 23.5819 7.83666C23.5819 9.45992 22.6003 10.4556 21 10.4556C20.3489 10.4556 19.7518 10.3002 19.4431 10.0504C16.961 8.04139 19.3474 4.19828 22.171 5.65715ZM17.5649 6.1862C17.4555 6.41203 17.3649 7.22976 17.364 8.00363C17.3602 10.496 18.477 11.4849 21.702 11.8453C23.9823 12.1002 26.0762 13.0376 27.4024 14.3972L28.2889 15.3062L27.4137 16.634L26.5384 17.962L25.8643 17.145C24.7508 15.7956 23.3711 15.1449 20.8183 14.7659C18.2123 14.3792 17.0269 13.8053 15.7465 12.3106C14.7185 11.1109 14.1432 9.45172 14.2382 7.96189L14.3105 6.83274L15.6015 6.31142C17.2253 5.65574 17.8414 5.61658 17.5649 6.1862ZM13.0661 8.91258C13.1257 9.62971 13.4545 10.7528 13.8289 11.5173L14.487 12.8615L13.6611 13.6865L12.8353 14.5117L11.4899 13.8541C10.7248 13.4801 9.60069 13.1515 8.88293 13.092C8.18886 13.0345 7.62108 12.9161 7.62108 12.8291C7.62108 12.184 12.1572 7.65187 12.8029 7.65187C12.89 7.65187 13.0086 8.21914 13.0661 8.91258ZM30.7467 8.77141C32.005 9.78401 34.3789 12.4363 34.3789 12.8291C34.3789 12.9161 33.8111 13.0345 33.1171 13.092C32.3993 13.1515 31.2752 13.4801 30.5101 13.8541L29.1647 14.5117L28.3251 13.6726L27.4853 12.8336L28.1392 11.6331C28.556 10.8679 28.8391 9.92824 28.9194 9.04227C28.9889 8.27754 29.1154 7.65187 29.2006 7.65187C29.286 7.65187 29.9817 8.15559 30.7467 8.77141ZM16.7227 14.6707L17.9611 15.4685L17.1333 16.1504C15.771 17.2721 15.1384 18.6132 14.7877 21.1229C14.5687 22.6894 14.2925 23.6706 13.8662 24.3974C12.6241 26.5152 10.3565 27.8195 7.9173 27.8195C6.92913 27.8195 6.87327 27.7806 6.4327 26.7853C6.18085 26.2164 5.906 25.4074 5.82173 24.9871C5.68396 24.2984 5.71306 24.2426 6.11678 24.4215C7.04086 24.8303 8.73411 24.8216 9.61571 24.4037C10.9245 23.7832 11.5463 22.6437 11.8317 20.342C11.9688 19.2368 12.3246 17.8321 12.6438 17.1351C13.1844 15.9558 15.0485 13.6564 15.3447 13.8037C15.4215 13.8417 16.0413 14.2319 16.7227 14.6707ZM10.3203 14.6416C12.0967 15.3932 12.1838 15.4814 11.7824 16.119C11.588 16.4279 11.3029 17.0772 11.1489 17.5622L10.8691 18.4441L10.1405 17.9259C9.03174 17.137 7.03546 17.0636 5.99965 17.7735C4.44911 18.8365 4.21462 19.3897 4.24326 21.9186C4.29936 26.8949 7.00424 31.755 11.4566 34.8789C12.7851 35.8111 13.1801 36.247 13.7113 37.3666C14.0655 38.1132 14.6483 39.071 15.0065 39.4947L15.6576 40.2656L14.0697 39.6683C7.36148 37.1457 2.61619 31.3763 1.3743 24.2332C0.711458 20.4213 1.24755 18.0696 3.22529 16.1131C4.98356 14.374 8.14051 13.7191 10.3203 14.6416ZM35.5673 15.2523C35.8191 15.8212 36.094 16.6302 36.1783 17.0505C36.316 17.7392 36.2869 17.795 35.8832 17.6161C34.9591 17.2074 33.2659 17.216 32.3843 17.6339C31.0692 18.2575 30.4537 19.392 30.1669 21.7223C29.8756 24.0878 28.9778 26.1008 27.6275 27.4155L26.7177 28.3012L25.3888 27.4267L24.0595 26.5522L24.8773 25.8787C26.229 24.7655 26.8623 23.4192 27.2123 20.9147C27.5723 18.3393 28.1906 17.0744 29.7343 15.7541C30.8654 14.787 32.3432 14.2582 33.9813 14.2345C35.0943 14.2183 35.1157 14.2319 35.5673 15.2523ZM23.8471 16.922C25.343 17.9747 25.9849 19.3571 25.8814 21.3019C25.7789 23.226 24.9602 24.5549 23.3472 25.4158C22.4653 25.8865 22.0311 25.9657 20.7167 25.8959C18.7908 25.7934 17.4607 24.9754 16.599 23.3639C16.128 22.4828 16.0486 22.049 16.1186 20.7358C16.2211 18.8116 17.0398 17.4827 18.6528 16.6218C19.5347 16.1511 19.9689 16.0719 21.2833 16.1418C22.57 16.2102 23.0383 16.3528 23.8471 16.922ZM9.22538 18.771C11.0289 19.7027 10.8963 22.5912 9.01413 23.3702C8.0309 23.7771 6.67423 23.5055 6.03838 22.7743C5.00187 21.5826 5.06289 20.2555 6.20667 19.1127C6.9735 18.3466 8.14685 18.2139 9.22538 18.771ZM35.9539 19.248C36.9979 20.4607 36.9404 21.7788 35.7933 22.9249C35.0265 23.691 33.8531 23.8238 32.7746 23.2666C31.0581 22.3797 31.0685 19.7365 32.7925 18.7366C33.6464 18.2415 35.3204 18.5124 35.9539 19.248ZM17.8543 26.321C18.5768 26.7441 19.6032 27.0372 21.1817 27.2717C23.7854 27.6582 24.9731 28.2323 26.2488 29.7214C27.2435 30.8827 27.8068 32.4189 27.8068 33.9716C27.8068 35.0986 27.7913 35.1226 26.7717 35.5731C26.2023 35.8247 25.3925 36.0993 24.9719 36.1835C24.279 36.3218 24.2274 36.2942 24.4208 35.8887C24.5381 35.6425 24.6351 34.8079 24.636 34.034C24.6398 31.5416 23.523 30.5527 20.298 30.1923C18.0177 29.9374 15.9238 29 14.5976 27.6404L13.7111 26.7314L14.5863 25.4036L15.4616 24.0756L16.1357 24.8926C16.5063 25.3417 17.2797 25.9847 17.8543 26.321ZM39.6556 27.971C37.5819 33.4759 33.0422 37.8947 27.4998 39.8033C24.8625 40.7116 21.423 41.1375 19.6783 40.7719C17.283 40.2698 15.3391 38.593 14.5321 36.3326C13.9073 34.5827 14.2551 31.6261 15.2391 30.3224C15.5306 29.936 15.6165 29.9278 16.1101 30.2375C16.4113 30.4266 17.0523 30.7063 17.5346 30.8592L18.4118 31.1369L17.828 31.9949C16.6824 33.6794 17.1755 35.9759 18.9666 37.2955C19.541 37.7188 19.9433 37.7826 21.9006 37.7605C26.8813 37.7045 31.7459 35.002 34.8725 30.5537C35.7964 29.2395 36.2529 28.8235 37.3624 28.285C38.1098 27.9222 39.0381 27.3564 39.4254 27.0274C39.8126 26.6986 40.1551 26.4256 40.1861 26.4209C40.2173 26.4162 39.9786 27.1139 39.6556 27.971ZM13.7181 28.3999L14.5089 29.2151L13.8578 30.4101C13.4437 31.1702 13.1609 32.1113 13.0806 32.9953C13.0111 33.7601 12.8846 34.3857 12.7994 34.3857C12.1565 34.3857 7.62108 29.8513 7.62108 29.2085C7.62108 29.1215 8.18558 29.0033 8.87588 28.9461C9.57746 28.8879 10.6379 28.5798 11.2817 28.2468C11.9148 27.9194 12.5441 27.6366 12.6802 27.6183C12.8161 27.6 13.2832 27.9518 13.7181 28.3999ZM30.5704 28.213C31.2825 28.561 32.4176 28.8877 33.1171 28.9456C33.8111 29.0031 34.3789 29.1215 34.3789 29.2085C34.3789 29.8536 29.8428 34.3857 29.1971 34.3857C29.11 34.3857 28.9914 33.8185 28.9339 33.125C28.8745 32.4095 28.5457 31.2856 28.1737 30.5257L27.5183 29.1872L28.2953 28.3861C28.7227 27.9455 29.1205 27.585 29.179 27.585C29.2377 27.585 29.8639 27.8676 30.5704 28.213ZM22.5569 31.9872C23.7467 32.9501 23.9356 34.6334 22.981 35.7668C21.4887 37.5387 18.4181 36.4987 18.4181 34.2214C18.4181 32.5775 19.3917 31.582 21 31.582C21.6511 31.582 22.2482 31.7374 22.5569 31.9872Z" fill="black"/>
</svg>
